<svg width="20" height="20" viewBox="0 0 20 20" fill="none" xmlns="http://www.w3.org/2000/svg">
<g clip-path="url(#clip0_231_15891)">
<path d="M7.78547 15.6516L6.1763 15.22L6.83214 12.7708C5.85044 12.4087 4.93807 11.8811 4.13464 11.2108L2.34047 13.0058L1.1613 11.8266L2.9563 10.0325C1.94303 8.81893 1.26221 7.3631 0.980469 5.80747L2.62047 5.5083C3.25297 9.00997 6.3163 11.6666 10.0005 11.6666C13.6838 11.6666 16.748 9.00997 17.3805 5.5083L19.0205 5.80663C18.7391 7.36248 18.0586 8.81861 17.0455 10.0325L18.8396 11.8266L17.6605 13.0058L15.8663 11.2108C15.0629 11.8811 14.1505 12.4087 13.1688 12.7708L13.8246 15.2208L12.2155 15.6516L11.5588 13.2016C10.5274 13.3784 9.47351 13.3784 8.44214 13.2016L7.78547 15.6516Z" fill="#8F8F8F"/>
</g>
<defs>
<clipPath id="clip0_231_15891">
<rect width="20" height="20" fill="white"/>
</clipPath>
</defs>
</svg>
