<svg width="16" height="16" viewBox="0 0 16 16" fill="none" xmlns="http://www.w3.org/2000/svg">
<g clip-path="url(#clip0_506_15306)">
<path d="M3.64265 2.9555C4.85236 1.90728 6.39998 1.33127 8.00065 1.3335C11.6827 1.3335 14.6673 4.31817 14.6673 8.00017C14.6673 9.42417 14.2207 10.7442 13.4607 11.8268L11.334 8.00017H13.334C13.3341 6.95458 13.0268 5.93204 12.4504 5.05967C11.874 4.18731 11.0539 3.50361 10.0921 3.09359C9.13027 2.68356 8.06913 2.5653 7.04062 2.75351C6.01212 2.94173 5.06162 3.4281 4.30732 4.15217L3.64265 2.9555ZM12.3587 13.0448C11.1489 14.0931 9.60133 14.6691 8.00065 14.6668C4.31865 14.6668 1.33398 11.6822 1.33398 8.00017C1.33398 6.57617 1.78065 5.25617 2.54065 4.1735L4.66732 8.00017H2.66732C2.66723 9.04575 2.97449 10.0683 3.55088 10.9407C4.12726 11.813 4.94736 12.4967 5.9092 12.9068C6.87103 13.3168 7.93218 13.435 8.96068 13.2468C9.98919 13.0586 10.9397 12.5722 11.694 11.8482L12.3587 13.0448Z" fill="#8F8F8F"/>
</g>
<defs>
<clipPath id="clip0_506_15306">
<rect width="16" height="16" fill="white"/>
</clipPath>
</defs>
</svg>
